<svg width="25" height="25" viewBox="0 0 25 25" fill="none" xmlns="http://www.w3.org/2000/svg">
<path d="M15.4402 5.69C15.8182 5.25428 16.1065 4.74817 16.2884 4.20074C16.4703 3.6533 16.5422 3.07533 16.5002 2.5C15.3395 2.59369 14.2622 3.13956 13.5002 4.02C13.1353 4.44198 12.8587 4.93288 12.687 5.46364C12.5152 5.99441 12.4517 6.55424 12.5002 7.11C13.0663 7.11472 13.6259 6.98909 14.1358 6.74286C14.6456 6.49662 15.0919 6.13637 15.4402 5.69ZM17.9602 13.13C17.9669 12.3637 18.1687 11.6118 18.5466 10.9452C18.9245 10.2786 19.4661 9.71926 20.1202 9.32C19.7074 8.72524 19.1617 8.23483 18.5264 7.88767C17.8911 7.54051 17.1836 7.34615 16.4602 7.32C14.9002 7.16 13.4602 8.23 12.6302 8.23C11.8002 8.23 10.6302 7.34 9.33016 7.36C8.48028 7.388 7.65218 7.63578 6.9266 8.07919C6.20103 8.52259 5.60276 9.14648 5.19016 9.89C3.43016 12.95 4.74016 17.5 6.50016 19.97C7.30016 21.18 8.30016 22.55 9.62016 22.5C10.9402 22.45 11.3702 21.68 12.9002 21.68C14.4302 21.68 14.9002 22.5 16.2002 22.47C17.5002 22.44 18.4202 21.23 19.2602 20.02C19.8552 19.1415 20.32 18.1816 20.6402 17.17C19.8476 16.832 19.1715 16.2693 18.6952 15.5513C18.2189 14.8333 17.9634 13.9916 17.9602 13.13Z" fill="#F69186"/>
</svg>
