<svg width="24" height="24" viewBox="0 0 24 24" fill="none" xmlns="http://www.w3.org/2000/svg">
<g clip-path="url(#clip0_69_943)">
<path d="M6.44975 21.9999C5.78062 22.0134 5.11593 21.8885 4.49733 21.633C3.87873 21.3776 3.31955 20.9972 2.85484 20.5156C2.39013 20.0339 2.02989 19.4615 1.79671 18.8342C1.56353 18.2069 1.46243 17.5382 1.49975 16.8699C1.53583 15.7888 1.92158 14.7485 2.59909 13.9052C3.27661 13.0619 4.20936 12.461 5.25735 12.1928C6.30533 11.9246 7.41204 12.0035 8.41137 12.4177C9.4107 12.8319 10.2487 13.559 10.7997 14.4899C11.485 14.1579 12.2383 13.9901 12.9997 13.9999C13.5762 14.0018 14.1479 14.1033 14.6897 14.2999C14.3914 13.3281 14.2431 12.3165 14.2497 11.2999C14.2457 10.3065 14.3941 9.31835 14.6897 8.36994V7.17994C14.1458 7.42444 13.5561 7.55085 12.9597 7.55085C12.3634 7.55085 11.7737 7.42444 11.2297 7.17994C10.6411 6.77387 10.2168 6.17087 10.0335 5.47963C9.85012 4.78839 9.91973 4.05439 10.2297 3.40994C10.6797 2.46994 12.0197 1.58994 14.7397 1.88994C16.0097 2.01994 18.4897 4.45994 18.7397 4.71994C20.2849 6.23512 21.4244 8.11442 22.0535 10.1851C22.6825 12.2557 22.781 14.4513 22.3397 16.5699C22.173 17.5393 21.9357 18.4952 21.6297 19.4299C21.0997 21.0499 19.1597 22.1699 16.7997 22.1699C14.2197 22.1699 6.44975 21.9999 6.44975 21.9999Z" stroke="#F69186" stroke-width="2" stroke-linecap="round" stroke-linejoin="round"/>
<path d="M10.7998 14.49C10.2243 14.8119 9.77092 15.3145 9.50977 15.92" stroke="#F69186" stroke-width="2" stroke-linecap="round" stroke-linejoin="round"/>
<path d="M14.6602 14.29C14.6602 14.29 15.5602 14.49 16.3302 15.92" stroke="#F69186" stroke-width="2" stroke-linecap="round" stroke-linejoin="round"/>
<path d="M10 5.46001C10 6.12001 14.44 6.24001 14 4.14001" stroke="#F69186" stroke-width="2" stroke-linecap="round" stroke-linejoin="round"/>
</g>
<defs>
<clipPath id="clip0_69_943">
<rect width="24" height="24" fill="white"/>
</clipPath>
</defs>
</svg>
