<svg width="24" height="24" viewBox="0 0 24 24" fill="none" xmlns="http://www.w3.org/2000/svg">
<path d="M8.99965 18.1099C7.35965 17.8099 6.30965 16.8099 6.30965 15.3299C6.30497 14.7324 6.49935 14.1503 6.86214 13.6755C7.22492 13.2008 7.73546 12.8603 8.31321 12.7078C8.89095 12.5554 9.50301 12.5996 10.0528 12.8335C10.6026 13.0675 11.0589 13.4779 11.3497 13.9999C11.7142 13.8225 12.1143 13.7302 12.5197 13.7299C12.8331 13.7317 13.144 13.7858 13.4397 13.8899C13.1065 12.8458 13.1065 11.724 13.4397 10.6799V10.0399C13.1426 10.1738 12.8205 10.243 12.4947 10.243C12.1688 10.243 11.8467 10.1738 11.5497 10.0399C11.229 9.82191 10.9972 9.4962 10.8963 9.12188C10.7954 8.74757 10.8321 8.34947 10.9997 7.99988C11.2166 7.56439 11.5973 7.23258 12.0583 7.07703C12.5193 6.92148 13.0232 6.95487 13.4597 7.16988C14.1214 7.41233 14.7172 7.80614 15.1997 8.31988C15.3397 8.43988 15.4897 8.56988 15.6397 8.71988C16.4779 9.54211 17.0958 10.562 17.4366 11.6856C17.7773 12.8093 17.83 14.0006 17.5897 15.1499C17.5011 15.6794 17.3707 16.201 17.1997 16.7099C16.9197 17.5899 15.8497 18.0099 14.5797 18.1999C12.7195 18.2807 10.8562 18.2507 8.99965 18.1099Z" stroke="#F69186" stroke-width="2" stroke-linecap="round" stroke-linejoin="round"/>
<path d="M11.3504 14C11.0351 14.1728 10.7882 14.4479 10.6504 14.78" stroke="#F69186" stroke-width="2" stroke-linecap="round" stroke-linejoin="round"/>
<path d="M13.4502 13.9199C13.4502 13.9199 13.9302 14.0299 14.3502 14.8099" stroke="#F69186" stroke-width="2" stroke-linecap="round" stroke-linejoin="round"/>
<path d="M21.8699 6.32002C21.8672 5.37758 21.491 4.47465 20.8237 3.80918C20.1563 3.14371 19.2523 2.77002 18.3099 2.77002H5.68988C4.74744 2.77002 3.84345 3.14371 3.17611 3.80918C2.50877 4.47465 2.13253 5.37758 2.12988 6.32002V19C2.14562 19.9338 2.52763 20.8239 3.19356 21.4786C3.85949 22.1333 4.75602 22.5002 5.68988 22.5H18.3099C19.2437 22.5002 20.1403 22.1333 20.8062 21.4786C21.4721 20.8239 21.8541 19.9338 21.8699 19V6.32002Z" stroke="#F69186" stroke-width="2" stroke-linecap="round" stroke-linejoin="round"/>
<path d="M16.1104 1.5V4" stroke="#F69186" stroke-width="2" stroke-linecap="round" stroke-linejoin="round"/>
<path d="M7.88965 1.5V4" stroke="#F69186" stroke-width="2" stroke-linecap="round" stroke-linejoin="round"/>
</svg>
