<svg width="19" height="18" viewBox="0 0 19 18" fill="none" xmlns="http://www.w3.org/2000/svg">
<path d="M9.5 7.3125V12.375M9.5 12.375L7.25 10.125M9.5 12.375L11.75 10.125M5.5625 14.625C3.69854 14.625 2.1875 13.114 2.1875 11.25C2.1875 9.75529 3.15916 8.48752 4.5053 8.04389C4.46078 7.8069 4.4375 7.56242 4.4375 7.3125C4.4375 5.13788 6.20038 3.375 8.375 3.375C10.1984 3.375 11.7324 4.61445 12.1803 6.29681C12.3991 6.22585 12.6325 6.1875 12.875 6.1875C14.1176 6.1875 15.125 7.19486 15.125 8.4375C15.125 8.69861 15.0805 8.94932 14.9987 9.18249C16.059 9.58534 16.8125 10.6109 16.8125 11.8125C16.8125 13.3658 15.5533 14.625 14 14.625H5.5625Z" stroke="#F4F4F5" stroke-width="1.5" stroke-linecap="round" stroke-linejoin="round"/>
</svg>
