<svg width="25" height="25" viewBox="0 0 25 25" fill="none" xmlns="http://www.w3.org/2000/svg">
<path d="M20.8578 15.2891L22.25 13.8969L20.8578 12.5L17.375 15.9828L9.01719 7.625L12.5 4.14219L11.1078 2.75L9.71563 4.14219L8.31875 2.75L6.23281 4.83594L4.83594 3.44375L3.44375 4.83594L4.83594 6.22812L2.75 8.31875L4.14219 9.71094L2.75 11.1078L4.14219 12.5L7.625 9.01719L15.9828 17.375L12.5 20.8578L13.8922 22.25L15.2844 20.8578L16.6766 22.25L18.7625 20.1641L20.1547 21.5563L21.5469 20.1641L20.1547 18.7719L22.2406 16.6859L20.8578 15.2891Z" fill="#F69186"/>
</svg>
