<svg width="18" height="18" viewBox="0 0 18 18" fill="none" xmlns="http://www.w3.org/2000/svg">
<g clip-path="url(#clip0_128_455)">
<path d="M8.05005 3.80699C9.79709 3.5988 11.5643 3.96811 13.0817 4.85853C14.5991 5.74895 15.7835 7.11155 16.4538 8.73824C16.5163 8.90663 16.5163 9.09186 16.4538 9.26024C16.1782 9.92849 15.8139 10.5566 15.3708 11.1277M10.5633 10.6185C10.1389 11.0284 9.57058 11.2552 8.98063 11.25C8.39069 11.2449 7.82636 11.0083 7.40919 10.5911C6.99202 10.1739 6.7554 9.60961 6.75027 9.01966C6.74514 8.42972 6.97193 7.86137 7.38179 7.43701M13.1096 13.1243C12.1147 13.7136 11.0047 14.082 9.8549 14.2046C8.70507 14.3271 7.54234 14.2009 6.4456 13.8344C5.34886 13.468 4.34377 12.8699 3.49854 12.0808C2.6533 11.2917 1.98769 10.33 1.54688 9.26102C1.48437 9.09264 1.48437 8.90741 1.54688 8.73903C2.21185 7.12642 3.38188 5.77296 4.88138 4.88177M1.50037 1.5L16.5004 16.5" stroke="url(#paint0_linear_128_455)" stroke-width="2" stroke-linecap="round" stroke-linejoin="round"/>
</g>
<defs>
<linearGradient id="paint0_linear_128_455" x1="9.00034" y1="1.5" x2="9.00034" y2="16.5" gradientUnits="userSpaceOnUse">
<stop stop-color="#F88477"/>
<stop offset="1" stop-color="#F12711" stop-opacity="0.7"/>
</linearGradient>
<clipPath id="clip0_128_455">
<rect width="18" height="18" fill="white"/>
</clipPath>
</defs>
</svg>
