<svg width="18" height="18" viewBox="0 0 18 18" fill="none" xmlns="http://www.w3.org/2000/svg">
<path d="M1.54688 9.26103C1.48437 9.09264 1.48437 8.90741 1.54688 8.73903C2.15565 7.26292 3.18902 6.00081 4.51596 5.1127C5.8429 4.22459 7.40366 3.75049 9.00038 3.75049C10.5971 3.75049 12.1579 4.22459 13.4848 5.1127C14.8117 6.00081 15.8451 7.26292 16.4539 8.73903C16.5164 8.90741 16.5164 9.09264 16.4539 9.26103C15.8451 10.7371 14.8117 11.9992 13.4848 12.8874C12.1579 13.7755 10.5971 14.2496 9.00038 14.2496C7.40366 14.2496 5.8429 13.7755 4.51596 12.8874C3.18902 11.9992 2.15565 10.7371 1.54688 9.26103Z" stroke="url(#paint0_linear_127_450)" stroke-width="2" stroke-linecap="round" stroke-linejoin="round"/>
<path d="M9.00037 11.2499C10.243 11.2499 11.2504 10.2426 11.2504 8.99994C11.2504 7.7573 10.243 6.74994 9.00037 6.74994C7.75773 6.74994 6.75037 7.7573 6.75037 8.99994C6.75037 10.2426 7.75773 11.2499 9.00037 11.2499Z" stroke="url(#paint1_linear_127_450)" stroke-width="2" stroke-linecap="round" stroke-linejoin="round"/>
<defs>
<linearGradient id="paint0_linear_127_450" x1="9.00038" y1="3.75049" x2="9.00038" y2="14.2496" gradientUnits="userSpaceOnUse">
<stop stop-color="#F88477"/>
<stop offset="1" stop-color="#F12711" stop-opacity="0.7"/>
</linearGradient>
<linearGradient id="paint1_linear_127_450" x1="9.00038" y1="3.75049" x2="9.00038" y2="14.2496" gradientUnits="userSpaceOnUse">
<stop stop-color="#F88477"/>
<stop offset="1" stop-color="#F12711" stop-opacity="0.7"/>
</linearGradient>
</defs>
</svg>
