<svg width="25" height="25" viewBox="0 0 25 25" fill="none" xmlns="http://www.w3.org/2000/svg">
<path d="M16.2279 17.6474C15.1344 16.554 13.7028 16.0048 12.2697 15.9999C10.8237 15.995 9.37619 16.5441 8.27292 17.6474M23.5 12.25C23.5 18.4632 18.4632 23.5 12.25 23.5C6.0368 23.5 1 18.4632 1 12.25C1 6.0368 6.0368 1 12.25 1C18.4632 1 23.5 6.0368 23.5 12.25ZM9.4375 9.4375C9.4375 9.95527 9.22763 10.375 8.96875 10.375C8.70987 10.375 8.5 9.95527 8.5 9.4375C8.5 8.91973 8.70987 8.5 8.96875 8.5C9.22763 8.5 9.4375 8.91973 9.4375 9.4375ZM8.96875 9.4375H8.97813V9.45625H8.96875V9.4375ZM16 9.4375C16 9.95527 15.7901 10.375 15.5312 10.375C15.2724 10.375 15.0625 9.95527 15.0625 9.4375C15.0625 8.91973 15.2724 8.5 15.5312 8.5C15.7901 8.5 16 8.91973 16 9.4375ZM15.5312 9.4375H15.5406V9.45625H15.5312V9.4375Z" stroke="#425466" stroke-width="1.5" stroke-linecap="round" stroke-linejoin="round"/>
</svg>
