<svg width="31" height="30" viewBox="0 0 31 30" fill="none" xmlns="http://www.w3.org/2000/svg">
<path d="M19.4779 20.3974C18.3844 19.304 16.9528 18.7548 15.5197 18.7499C14.0737 18.745 12.6262 19.2941 11.5229 20.3974M26.75 15C26.75 21.2132 21.7132 26.25 15.5 26.25C9.2868 26.25 4.25 21.2132 4.25 15C4.25 8.7868 9.2868 3.75 15.5 3.75C21.7132 3.75 26.75 8.7868 26.75 15ZM12.6875 12.1875C12.6875 12.7053 12.4776 13.125 12.2188 13.125C11.9599 13.125 11.75 12.7053 11.75 12.1875C11.75 11.6697 11.9599 11.25 12.2188 11.25C12.4776 11.25 12.6875 11.6697 12.6875 12.1875ZM12.2188 12.1875H12.2281V12.2063H12.2188V12.1875ZM19.25 12.1875C19.25 12.7053 19.0401 13.125 18.7812 13.125C18.5224 13.125 18.3125 12.7053 18.3125 12.1875C18.3125 11.6697 18.5224 11.25 18.7812 11.25C19.0401 11.25 19.25 11.6697 19.25 12.1875ZM18.7812 12.1875H18.7906V12.2063H18.7812V12.1875Z" stroke="#425466" stroke-width="1.5" stroke-linecap="round" stroke-linejoin="round"/>
</svg>
