<svg width="25" height="24" viewBox="0 0 25 24" fill="none" xmlns="http://www.w3.org/2000/svg">
<path d="M16.4775 15.9775C14.2808 18.1742 10.7192 18.1742 8.52252 15.9775M23.75 12C23.75 18.2132 18.7132 23.25 12.5 23.25C6.2868 23.25 1.25 18.2132 1.25 12C1.25 5.7868 6.2868 0.75 12.5 0.75C18.7132 0.75 23.75 5.7868 23.75 12ZM9.6875 9.1875C9.6875 9.70527 9.47763 10.125 9.21875 10.125C8.95987 10.125 8.75 9.70527 8.75 9.1875C8.75 8.66973 8.95987 8.25 9.21875 8.25C9.47763 8.25 9.6875 8.66973 9.6875 9.1875ZM9.21875 9.1875H9.22813V9.20625H9.21875V9.1875ZM16.25 9.1875C16.25 9.70527 16.0401 10.125 15.7812 10.125C15.5224 10.125 15.3125 9.70527 15.3125 9.1875C15.3125 8.66973 15.5224 8.25 15.7812 8.25C16.0401 8.25 16.25 8.66973 16.25 9.1875ZM15.7812 9.1875H15.7906V9.20625H15.7812V9.1875Z" stroke="#425466" stroke-width="1.5" stroke-linecap="round" stroke-linejoin="round"/>
</svg>
