<svg width="19" height="18" viewBox="0 0 19 18" fill="none" xmlns="http://www.w3.org/2000/svg">
<path d="M9.5 7.5C9.91421 7.5 10.25 7.16421 10.25 6.75C10.25 6.33579 9.91421 6 9.5 6C9.08579 6 8.75 6.33579 8.75 6.75C8.75 7.16421 9.08579 7.5 9.5 7.5Z" stroke="url(#paint0_linear_102_756)" stroke-width="2" stroke-linecap="round" stroke-linejoin="round"/>
<path d="M14.75 7.5C15.1642 7.5 15.5 7.16421 15.5 6.75C15.5 6.33579 15.1642 6 14.75 6C14.3358 6 14 6.33579 14 6.75C14 7.16421 14.3358 7.5 14.75 7.5Z" stroke="url(#paint1_linear_102_756)" stroke-width="2" stroke-linecap="round" stroke-linejoin="round"/>
<path d="M4.25 7.5C4.66421 7.5 5 7.16421 5 6.75C5 6.33579 4.66421 6 4.25 6C3.83579 6 3.5 6.33579 3.5 6.75C3.5 7.16421 3.83579 7.5 4.25 7.5Z" stroke="url(#paint2_linear_102_756)" stroke-width="2" stroke-linecap="round" stroke-linejoin="round"/>
<path d="M9.5 12C9.91421 12 10.25 11.6642 10.25 11.25C10.25 10.8358 9.91421 10.5 9.5 10.5C9.08579 10.5 8.75 10.8358 8.75 11.25C8.75 11.6642 9.08579 12 9.5 12Z" stroke="url(#paint3_linear_102_756)" stroke-width="2" stroke-linecap="round" stroke-linejoin="round"/>
<path d="M14.75 12C15.1642 12 15.5 11.6642 15.5 11.25C15.5 10.8358 15.1642 10.5 14.75 10.5C14.3358 10.5 14 10.8358 14 11.25C14 11.6642 14.3358 12 14.75 12Z" stroke="url(#paint4_linear_102_756)" stroke-width="2" stroke-linecap="round" stroke-linejoin="round"/>
<path d="M4.25 12C4.66421 12 5 11.6642 5 11.25C5 10.8358 4.66421 10.5 4.25 10.5C3.83579 10.5 3.5 10.8358 3.5 11.25C3.5 11.6642 3.83579 12 4.25 12Z" stroke="url(#paint5_linear_102_756)" stroke-width="2" stroke-linecap="round" stroke-linejoin="round"/>
<defs>
<linearGradient id="paint0_linear_102_756" x1="9.5" y1="6" x2="9.5" y2="12" gradientUnits="userSpaceOnUse">
<stop stop-color="#F88477"/>
<stop offset="1" stop-color="#F12711" stop-opacity="0.7"/>
</linearGradient>
<linearGradient id="paint1_linear_102_756" x1="9.5" y1="6" x2="9.5" y2="12" gradientUnits="userSpaceOnUse">
<stop stop-color="#F88477"/>
<stop offset="1" stop-color="#F12711" stop-opacity="0.7"/>
</linearGradient>
<linearGradient id="paint2_linear_102_756" x1="9.5" y1="6" x2="9.5" y2="12" gradientUnits="userSpaceOnUse">
<stop stop-color="#F88477"/>
<stop offset="1" stop-color="#F12711" stop-opacity="0.7"/>
</linearGradient>
<linearGradient id="paint3_linear_102_756" x1="9.5" y1="6" x2="9.5" y2="12" gradientUnits="userSpaceOnUse">
<stop stop-color="#F88477"/>
<stop offset="1" stop-color="#F12711" stop-opacity="0.7"/>
</linearGradient>
<linearGradient id="paint4_linear_102_756" x1="9.5" y1="6" x2="9.5" y2="12" gradientUnits="userSpaceOnUse">
<stop stop-color="#F88477"/>
<stop offset="1" stop-color="#F12711" stop-opacity="0.7"/>
</linearGradient>
<linearGradient id="paint5_linear_102_756" x1="9.5" y1="6" x2="9.5" y2="12" gradientUnits="userSpaceOnUse">
<stop stop-color="#F88477"/>
<stop offset="1" stop-color="#F12711" stop-opacity="0.7"/>
</linearGradient>
</defs>
</svg>
