<svg width="24" height="24" viewBox="0 0 24 24" fill="none" xmlns="http://www.w3.org/2000/svg">
<path d="M11.9998 12.53C14.8937 12.53 17.2398 10.184 17.2398 7.29005C17.2398 4.39608 14.8937 2.05005 11.9998 2.05005C9.10579 2.05005 6.75977 4.39608 6.75977 7.29005C6.75977 10.184 9.10579 12.53 11.9998 12.53Z" stroke="#F69186" stroke-width="2" stroke-linecap="round" stroke-linejoin="round"/>
<path d="M18.9995 20.64C19.0599 20.8646 19.164 21.075 19.3057 21.2594C19.4475 21.4437 19.6241 21.5984 19.8256 21.7144C20.0272 21.8305 20.2495 21.9058 20.4801 21.9359C20.7107 21.966 20.945 21.9504 21.1695 21.89C21.3941 21.8296 21.6046 21.7256 21.7889 21.5838C21.9733 21.4421 22.1279 21.2654 22.244 21.0639C22.36 20.8624 22.4353 20.64 22.4654 20.4094C22.4955 20.1788 22.4799 19.9446 22.4195 19.72L20.6895 13.27L17.2695 14.19L18.9995 20.64Z" stroke="#F69186" stroke-width="2" stroke-linecap="round" stroke-linejoin="round"/>
<path d="M5.00032 20.64C4.93991 20.8646 4.83587 21.075 4.69412 21.2594C4.55238 21.4437 4.37571 21.5984 4.17421 21.7144C3.9727 21.8305 3.75031 21.9058 3.51973 21.9359C3.28914 21.966 3.05488 21.9504 2.83032 21.89C2.60576 21.8296 2.3953 21.7256 2.21095 21.5838C2.0266 21.4421 1.87197 21.2654 1.7559 21.0639C1.63983 20.8624 1.56458 20.64 1.53445 20.4094C1.50433 20.1788 1.51991 19.9446 1.58032 19.72L3.31032 13.27L6.73032 14.19L5.00032 20.64Z" stroke="#F69186" stroke-width="2" stroke-linecap="round" stroke-linejoin="round"/>
<path d="M19.0002 13.73L17.2402 7.29004" stroke="#F69186" stroke-width="2" stroke-linecap="round" stroke-linejoin="round"/>
<path d="M5 13.73L6.76 7.29004" stroke="#F69186" stroke-width="2" stroke-linecap="round" stroke-linejoin="round"/>
</svg>
