<svg width="20" height="20" viewBox="0 0 20 20" fill="none" xmlns="http://www.w3.org/2000/svg">
<path d="M12.9814 15.0817C14.876 14.857 16.7029 14.4116 18.4357 13.7719C16.9989 12.177 16.1244 10.0656 16.1244 7.75V7.04919C16.1245 7.03281 16.1246 7.01641 16.1246 7C16.1246 3.68629 13.4383 1 10.1246 1C6.81088 1 4.12459 3.68629 4.12459 7L4.12439 7.75C4.12439 10.0656 3.24986 12.177 1.81306 13.7719C3.54599 14.4116 5.37302 14.857 7.26772 15.0818M12.9814 15.0817C12.0446 15.1928 11.0912 15.25 10.1244 15.25C9.15775 15.25 8.20447 15.1929 7.26772 15.0818M12.9814 15.0817C13.0744 15.3711 13.1246 15.6797 13.1246 16C13.1246 17.6569 11.7814 19 10.1246 19C8.46773 19 7.12459 17.6569 7.12459 16C7.12459 15.6797 7.17478 15.3712 7.26772 15.0818M1.24902 5.5C1.5363 3.78764 2.30712 2.23924 3.41627 1M16.8329 1C17.9421 2.23924 18.7129 3.78764 19.0001 5.5" stroke="#0F172A" stroke-width="1.5" stroke-linecap="round" stroke-linejoin="round"/>
</svg>
