<svg width="25" height="24" viewBox="0 0 25 24" fill="none" xmlns="http://www.w3.org/2000/svg">
<g clip-path="url(#clip0_69_975)">
<path d="M9.83317 2.66669H4.49984C4.14622 2.66669 3.80708 2.80716 3.55703 3.05721C3.30698 3.30726 3.1665 3.6464 3.1665 4.00002V9.33335C3.1665 9.68698 3.30698 10.0261 3.55703 10.2762C3.80708 10.5262 4.14622 10.6667 4.49984 10.6667H9.83317C10.1868 10.6667 10.5259 10.5262 10.776 10.2762C11.026 10.0261 11.1665 9.68698 11.1665 9.33335V4.00002C11.1665 3.6464 11.026 3.30726 10.776 3.05721C10.5259 2.80716 10.1868 2.66669 9.83317 2.66669ZM4.49984 9.33335V4.00002H9.83317V9.33335H4.49984Z" fill="#F69186"/>
<path d="M20.5002 2.66669H15.1668C14.8132 2.66669 14.4741 2.80716 14.224 3.05721C13.974 3.30726 13.8335 3.6464 13.8335 4.00002V9.33335C13.8335 9.68698 13.974 10.0261 14.224 10.2762C14.4741 10.5262 14.8132 10.6667 15.1668 10.6667H20.5002C20.8538 10.6667 21.1929 10.5262 21.443 10.2762C21.693 10.0261 21.8335 9.68698 21.8335 9.33335V4.00002C21.8335 3.6464 21.693 3.30726 21.443 3.05721C21.1929 2.80716 20.8538 2.66669 20.5002 2.66669ZM15.1668 9.33335V4.00002H20.5002V9.33335H15.1668Z" fill="#F69186"/>
<path d="M9.83317 13.3333H4.49984C4.14622 13.3333 3.80708 13.4738 3.55703 13.7238C3.30698 13.9739 3.1665 14.313 3.1665 14.6666V20C3.1665 20.3536 3.30698 20.6927 3.55703 20.9428C3.80708 21.1928 4.14622 21.3333 4.49984 21.3333H9.83317C10.1868 21.3333 10.5259 21.1928 10.776 20.9428C11.026 20.6927 11.1665 20.3536 11.1665 20V14.6666C11.1665 14.313 11.026 13.9739 10.776 13.7238C10.5259 13.4738 10.1868 13.3333 9.83317 13.3333ZM4.49984 20V14.6666H9.83317V20H4.49984Z" fill="#F69186"/>
<path d="M20.5002 13.3333H15.1668C14.8132 13.3333 14.4741 13.4738 14.224 13.7238C13.974 13.9739 13.8335 14.313 13.8335 14.6666V20C13.8335 20.3536 13.974 20.6927 14.224 20.9428C14.4741 21.1928 14.8132 21.3333 15.1668 21.3333H20.5002C20.8538 21.3333 21.1929 21.1928 21.443 20.9428C21.693 20.6927 21.8335 20.3536 21.8335 20V14.6666C21.8335 14.313 21.693 13.9739 21.443 13.7238C21.1929 13.4738 20.8538 13.3333 20.5002 13.3333ZM15.1668 20V14.6666H20.5002V20H15.1668Z" fill="#F69186"/>
</g>
<defs>
<clipPath id="clip0_69_975">
<rect width="24" height="24" fill="white" transform="translate(0.5)"/>
</clipPath>
</defs>
</svg>
