<svg width="19" height="18" viewBox="0 0 19 18" fill="none" xmlns="http://www.w3.org/2000/svg">
<path d="M9.50024 15.0001H16.2502M12.7822 2.71655C13.0808 2.41798 13.4857 2.25024 13.908 2.25024C14.3302 2.25024 14.7352 2.41798 15.0337 2.71655C15.3323 3.01511 15.5 3.42006 15.5 3.8423C15.5 4.26453 15.3323 4.66948 15.0337 4.96805L6.02623 13.9763C5.8478 14.1547 5.62724 14.2852 5.38498 14.3558L3.23098 14.9843C3.16644 15.0031 3.09803 15.0042 3.03291 14.9876C2.96779 14.9709 2.90835 14.937 2.86081 14.8895C2.81328 14.8419 2.77939 14.7825 2.76271 14.7174C2.74602 14.6522 2.74715 14.5838 2.76598 14.5193L3.39448 12.3653C3.46514 12.1233 3.59566 11.903 3.77398 11.7248L12.7822 2.71655Z" stroke="white" stroke-width="2" stroke-linecap="round" stroke-linejoin="round"/>
</svg>
