<svg width="25" height="25" viewBox="0 0 25 25" fill="none" xmlns="http://www.w3.org/2000/svg">
<path d="M16.2501 8H15.8001L16.7751 7.025C17.0001 6.8 17.0751 6.5 16.9251 6.2C16.7751 5.9 16.5501 5.75 16.2501 5.75H14.0001C13.5501 5.75 13.2501 6.05 13.2501 6.5C13.2501 6.95 13.5501 7.25 14.0001 7.25H14.4501L13.4751 8.225C13.2501 8.45 13.1751 8.75 13.3251 9.05C13.4751 9.35 13.7001 9.5 14.0001 9.5H16.2501C16.7001 9.5 17.0001 9.2 17.0001 8.75C17.0001 8.3 16.7001 8 16.2501 8Z" fill="#F69186"/>
<path d="M21.5 6.5H20.3L21.875 4.775C22.1 4.55 22.1 4.25 22.025 3.95C21.95 3.65 21.65 3.5 21.35 3.5H18.5C18.05 3.5 17.75 3.8 17.75 4.25C17.75 4.7 18.05 5 18.5 5H19.7L18.125 6.725C17.9 6.95 17.9 7.25 17.975 7.55C18.125 7.85 18.35 8 18.65 8H21.5C21.95 8 22.25 7.7 22.25 7.25C22.25 6.8 21.95 6.5 21.5 6.5Z" fill="#F69186"/>
<path d="M22.475 9.275C22.175 9.425 21.875 9.5 21.5 9.5H18.65C18.575 9.5 18.425 9.5 18.35 9.5C18.05 10.4 17.225 11 16.25 11H14C13.1 11 12.275 10.475 11.9 9.575C11.6 8.9 11.675 8.15 12.05 7.625C11.825 7.325 11.75 6.875 11.75 6.5C11.75 5.225 12.725 4.25 14 4.25H16.25C16.25 3.725 16.4 3.275 16.7 2.9C16.625 2.825 16.625 2.825 16.55 2.825C15.275 2.3 13.925 2 12.5 2C6.725 2 2 6.725 2 12.5C2 18.275 6.725 23 12.5 23C18.275 23 23 18.275 23 12.5C23 11.375 22.85 10.325 22.475 9.275ZM6.275 13.85C5.975 13.55 5.9 13.1 6.2 12.8C6.5 12.5 6.95 12.425 7.25 12.725C7.55 12.95 8.075 13.325 8.75 13.325C9.425 13.325 9.95 13.025 10.25 12.725C10.55 12.425 11 12.5 11.3 12.8C11.6 13.1 11.525 13.55 11.225 13.85C10.55 14.45 9.65 14.75 8.75 14.75C7.85 14.75 6.95 14.45 6.275 13.85ZM14.75 18.5H10.25C9.8 18.5 9.5 18.2 9.5 17.75C9.5 16.1 10.85 14.75 12.5 14.75C14.15 14.75 15.5 16.1 15.5 17.75C15.5 18.2 15.2 18.5 14.75 18.5ZM18.725 13.85C18.05 14.45 17.15 14.75 16.25 14.75C15.35 14.75 14.45 14.45 13.775 13.85C13.475 13.55 13.4 13.1 13.7 12.8C14 12.5 14.45 12.425 14.75 12.725C15.05 12.95 15.575 13.325 16.25 13.325C16.925 13.325 17.45 13.025 17.75 12.725C18.05 12.425 18.5 12.5 18.8 12.8C19.025 13.1 19.025 13.55 18.725 13.85Z" fill="#F69186"/>
</svg>
