<svg width="25" height="25" viewBox="0 0 25 25" fill="none" xmlns="http://www.w3.org/2000/svg">
<path d="M7.5 21.5H17.5" stroke="#F69186" stroke-width="2" stroke-linecap="round" stroke-linejoin="round"/>
<path d="M12.5 21.5C14.8869 21.5 17.1761 20.5518 18.864 18.864C20.5518 17.1761 21.5 14.8869 21.5 12.5H3.5C3.5 14.8869 4.44821 17.1761 6.13604 18.864C7.82387 20.5518 10.1131 21.5 12.5 21.5Z" fill="white" stroke="#F69186" stroke-width="2" stroke-linecap="round" stroke-linejoin="round"/>
<path d="M11.8799 12.5C11.2743 12.5057 10.6889 12.2821 10.2412 11.8742C9.79346 11.4663 9.51653 10.9042 9.46592 10.3007C9.41531 9.69714 9.59476 9.09678 9.96828 8.62001C10.3418 8.14324 10.8818 7.82533 11.4799 7.73003C11.3841 7.30626 11.4052 6.86444 11.5408 6.4517C11.6765 6.03896 11.9216 5.67078 12.2501 5.38644C12.5786 5.1021 12.9781 4.91225 13.406 4.83715C13.8339 4.76206 14.2742 4.80453 14.6799 4.96003C14.8575 4.68039 15.0911 4.44056 15.366 4.25563C15.6409 4.0707 15.951 3.94468 16.277 3.8855C16.603 3.82632 16.9376 3.83526 17.26 3.91177C17.5823 3.98827 17.8853 4.13068 18.1499 4.33003C18.6115 3.96725 19.19 3.78624 19.776 3.82122C20.362 3.85621 20.9149 4.10478 21.33 4.5199C21.7451 4.93502 21.9937 5.4879 22.0287 6.07392C22.0637 6.65994 21.8827 7.23847 21.5199 7.70003C21.7457 7.99996 21.898 8.34868 21.9645 8.71816C22.0311 9.08764 22.01 9.46758 21.903 9.82744C21.796 10.1873 21.6061 10.517 21.3485 10.7902C21.0909 11.0633 20.7729 11.2722 20.4199 11.4C20.5111 11.76 20.5214 12.1357 20.4499 12.5" stroke="#F69186" stroke-width="2" stroke-linecap="round" stroke-linejoin="round"/>
<path d="M13.5 12.5L17.5 8.5" stroke="#F69186" stroke-width="2" stroke-linecap="round" stroke-linejoin="round"/>
<path d="M11.4001 7.75003C10.8515 7.1653 10.1396 6.75937 9.35703 6.58515C8.57445 6.41093 7.75754 6.47651 7.01278 6.77334C6.26802 7.07016 5.62995 7.58447 5.18175 8.24921C4.73354 8.91395 4.49599 9.69831 4.50005 10.5C4.50005 11.23 4.70005 11.91 5.04005 12.5" stroke="#F69186" stroke-width="2" stroke-linecap="round" stroke-linejoin="round"/>
</svg>
